<svg width="227" height="49" viewBox="0 0 227 49" fill="none" xmlns="http://www.w3.org/2000/svg">
<g clip-path="url(#clip0_1_66)">
<path d="M0 0H7.71633L16.0193 22.5678L24.3267 0H31.8626L19.0201 32.2767H12.847L0 0Z" fill="#F39200"/>
<path d="M36.0953 0H60.0565V6.27236H43.0355V12.7723H58.0124V19.0447H43.0355V25.7722H60.2821V32.0446H36.0908V0H36.0953Z" fill="#F39200"/>
<path d="M66.5093 0H81.0305C85.0691 0 88.2008 1.1425 90.2901 3.24998C92.059 5.03428 93.0111 7.55142 93.0111 10.5738V10.6648C93.0111 15.8402 90.2449 19.0902 86.2018 20.6014L93.9632 32.0446H85.7956L78.9863 21.7894H73.4946V32.0446H66.5048V0H66.5093ZM80.5792 15.5671C83.9816 15.5671 85.9355 13.7373 85.9355 11.0335V10.9425C85.9355 7.92011 83.8463 6.3634 80.4439 6.3634H73.4992V15.5671H80.5792Z" fill="#F39200"/>
<g style="mix-blend-mode:multiply">
<path d="M106.855 0H99.3241V32.0446H106.179V11.2611L111.413 19.1175H111.422L115.163 13.2229L106.855 0Z" fill="#F39200"/>
</g>
<g style="mix-blend-mode:multiply">
<path d="M123.561 0L115.163 13.2229L118.895 19.1676L118.822 19.2768L124.147 11.1246V32.0446H131.092V0H123.561Z" fill="#666666"/>
</g>
<g style="mix-blend-mode:multiply">
<path d="M115.163 13.2229L111.417 19.122L115.208 24.8118L118.822 19.2768L118.895 19.1676L115.163 13.2229Z" fill="#7F4F00"/>
</g>
<path d="M138.723 0H162.684V6.27236H145.663V12.7723H160.64V19.0447H145.663V25.7722H162.909V32.0446H138.718V0H138.723Z" fill="#878787"/>
<path d="M169.132 0H193.093V6.27236H176.072V12.7723H191.049V19.0447H176.072V25.7722H193.319V32.0446H169.128V0H169.132Z" fill="#878787"/>
<path d="M199.542 0H214.063C218.101 0 221.233 1.1425 223.322 3.24998C225.091 5.03428 226.043 7.55142 226.043 10.5738V10.6648C226.043 15.8402 223.277 19.0902 219.234 20.6014L226.996 32.0446H218.828L212.019 21.7894H206.527V32.0446H199.537V0H199.542ZM213.612 15.5671C217.014 15.5671 218.968 13.7373 218.968 11.0335V10.9425C218.968 7.92011 216.879 6.3634 213.476 6.3634H206.531V15.5671H213.612Z" fill="#878787"/>
<path d="M33.451 46.6058V46.5921C33.451 45.2675 34.4753 44.1842 35.8697 44.1842C36.7 44.1842 37.2009 44.4118 37.6837 44.8215L37.0429 45.5998C36.6864 45.2994 36.3706 45.1264 35.8381 45.1264C35.098 45.1264 34.5114 45.7864 34.5114 46.5784V46.5921C34.5114 47.4433 35.0935 48.0669 35.9103 48.0669C36.2803 48.0669 36.6097 47.9758 36.8669 47.7892V47.1247H35.8426V46.2416H37.8461V48.2626C37.3723 48.6677 36.718 49 35.8742 49C34.4347 49 33.4465 47.9804 33.4465 46.6058H33.451Z" fill="#878787"/>
<path d="M42.7783 44.2661H46.2619V45.1765H43.7891V46.1233H45.9641V47.0336H43.7891V48.0123H46.2935V48.9226H42.7783V44.2661Z" fill="#878787"/>
<path d="M51.1489 44.2661H53.2607C53.8473 44.2661 54.3031 44.4346 54.6054 44.7395C54.8626 44.999 55.0025 45.3631 55.0025 45.8046V45.8183C55.0025 46.5694 54.6009 47.0427 54.0143 47.2612L55.1424 48.9226H53.9556L52.9674 47.4342H52.1687V48.9226H51.1534V44.2661H51.1489ZM53.193 46.5284C53.6894 46.5284 53.9692 46.2644 53.9692 45.8684V45.8547C53.9692 45.4177 53.6668 45.1902 53.1705 45.1902H52.1597V46.5284H53.1885H53.193Z" fill="#878787"/>
<path d="M59.8715 44.2661H63.3552V45.1765H60.8823V46.1233H63.0573V47.0336H60.8823V48.0123H63.3867V48.9226H59.8715V44.2661Z" fill="#878787"/>
<path d="M68.0391 46.6058V46.5921C68.0391 45.2675 69.0273 44.1842 70.4442 44.1842C71.3151 44.1842 71.834 44.4755 72.2627 44.9034L71.6175 45.6544C71.261 45.3267 70.9 45.1264 70.4352 45.1264C69.659 45.1264 69.095 45.7773 69.095 46.5784V46.5921C69.095 47.3887 69.641 48.0578 70.4352 48.0578C70.9631 48.0578 71.288 47.8438 71.649 47.5116L72.2943 48.1716C71.8205 48.6859 71.2926 49.0045 70.4036 49.0045C69.0453 49.0045 68.0345 47.9485 68.0345 46.6103L68.0391 46.6058Z" fill="#878787"/>
<path d="M77.0596 44.2661H78.0749V46.1096H79.9476V44.2661H80.9629V48.9226H79.9476V47.0518H78.0749V48.9226H77.0596V44.2661Z" fill="#878787"/>
<path d="M87.0998 45.2084H85.6964V44.2616H89.523V45.2084H88.1196V48.9226H87.1043V45.2084H87.0998Z" fill="#878787"/>
<path d="M93.8369 48.2444L94.4371 47.5207C94.8522 47.8666 95.2899 48.0851 95.8134 48.0851C96.2285 48.0851 96.4812 47.9167 96.4812 47.6481V47.6345C96.4812 47.375 96.3233 47.243 95.5516 47.0427C94.6221 46.8015 94.0219 46.542 94.0219 45.618V45.6044C94.0219 44.7577 94.6943 44.2024 95.6374 44.2024C96.3097 44.2024 96.8828 44.4164 97.3521 44.7942L96.8242 45.568C96.4135 45.2812 96.0119 45.1082 95.6239 45.1082C95.2358 45.1082 95.0282 45.2857 95.0282 45.5133V45.527C95.0282 45.832 95.2268 45.9321 96.0255 46.1369C96.9641 46.3827 97.4875 46.7241 97.4875 47.5343V47.548C97.4875 48.472 96.7881 48.9909 95.7908 48.9909C95.0914 48.9909 94.3874 48.7451 93.8324 48.2444H93.8369Z" fill="#878787"/>
<path d="M102.325 44.2661H104.125C105.578 44.2661 106.58 45.2721 106.58 46.583V46.5967C106.58 47.9076 105.578 48.9272 104.125 48.9272H102.325V44.2707V44.2661ZM103.34 45.1902V47.9986H104.125C104.956 47.9986 105.515 47.4342 105.515 46.6103V46.5967C105.515 45.7728 104.956 45.1947 104.125 45.1947H103.34V45.1902Z" fill="#878787"/>
<path d="M111.436 44.2661H114.919V45.1765H112.446V46.1233H114.621V47.0336H112.446V48.0123H114.951V48.9226H111.436V44.2661Z" fill="#878787"/>
<path d="M119.734 46.9244V44.2616H120.749V46.8971C120.749 47.6572 121.124 48.0487 121.747 48.0487C122.369 48.0487 122.744 47.6709 122.744 46.9289V44.2616H123.759V46.888C123.759 48.299 122.974 48.9909 121.733 48.9909C120.492 48.9909 119.734 48.2945 119.734 46.9198V46.9244Z" fill="#878787"/>
<path d="M128.745 44.2661H130.857C131.444 44.2661 131.9 44.4346 132.202 44.7395C132.459 44.999 132.599 45.3631 132.599 45.8046V45.8183C132.599 46.5694 132.197 47.0427 131.611 47.2612L132.739 48.9226H131.552L130.564 47.4342H129.765V48.9226H128.75V44.2661H128.745ZM130.79 46.5284C131.286 46.5284 131.566 46.2644 131.566 45.8684V45.8547C131.566 45.4177 131.263 45.1902 130.767 45.1902H129.756V46.5284H130.785H130.79Z" fill="#878787"/>
<path d="M137.008 44.2661H138.095L139.052 47.4205L140.085 44.2525H140.956L141.994 47.4205L142.951 44.2661H144.011L142.436 48.9545H141.552L140.509 45.9093L139.467 48.9545H138.583L137.008 44.2661Z" fill="#878787"/>
<path d="M149.706 44.2297H150.644L152.625 48.9181H151.565L151.141 47.8757H149.187L148.763 48.9181H147.729L149.706 44.2297ZM150.775 46.9699L150.162 45.4587L149.548 46.9699H150.775Z" fill="#878787"/>
<path d="M158.735 44.2297H159.674L161.65 48.9181H160.59L160.166 47.8757H158.212L157.788 48.9181H156.754L158.735 44.2297ZM159.805 46.9699L159.191 45.4587L158.577 46.9699H159.805Z" fill="#878787"/>
<path d="M166.316 44.2661H168.428C169.015 44.2661 169.471 44.4346 169.773 44.7395C170.03 44.999 170.17 45.3631 170.17 45.8046V45.8183C170.17 46.5694 169.768 47.0427 169.182 47.2612L170.31 48.9226H169.123L168.135 47.4342H167.336V48.9226H166.321V44.2661H166.316ZM168.36 46.5284C168.857 46.5284 169.137 46.2644 169.137 45.8684V45.8547C169.137 45.4177 168.834 45.1902 168.338 45.1902H167.327V46.5284H168.356H168.36Z" fill="#878787"/>
<path d="M175.034 44.2661H176.835C178.288 44.2661 179.29 45.2721 179.29 46.583V46.5967C179.29 47.9076 178.288 48.9272 176.835 48.9272H175.034V44.2707V44.2661ZM176.05 45.1902V47.9986H176.835C177.665 47.9986 178.225 47.4342 178.225 46.6103V46.5967C178.225 45.7728 177.665 45.1947 176.835 45.1947H176.05V45.1902Z" fill="#878787"/>
<path d="M184.145 44.2661H187.629V45.1765H185.156V46.1233H187.331V47.0336H185.156V48.0123H187.66V48.9226H184.145V44.2661Z" fill="#878787"/>
<path d="M192.516 44.2661H194.627C195.214 44.2661 195.67 44.4346 195.972 44.7395C196.229 44.999 196.369 45.3631 196.369 45.8046V45.8183C196.369 46.5694 195.968 47.0427 195.381 47.2612L196.509 48.9226H195.322L194.334 47.4342H193.535V48.9226H192.52V44.2661H192.516ZM194.56 46.5284C195.052 46.5284 195.336 46.2644 195.336 45.8684V45.8547C195.336 45.4177 195.034 45.1902 194.537 45.1902H193.526V46.5284H194.555H194.56Z" fill="#878787"/>
<path d="M200.918 48.2444L201.518 47.5207C201.933 47.8666 202.371 48.0851 202.894 48.0851C203.309 48.0851 203.562 47.9167 203.562 47.6481V47.6345C203.562 47.375 203.404 47.243 202.633 47.0427C201.703 46.8015 201.103 46.542 201.103 45.618V45.6044C201.103 44.7577 201.775 44.2024 202.718 44.2024C203.391 44.2024 203.964 44.4164 204.433 44.7942L203.905 45.568C203.494 45.2812 203.093 45.1082 202.705 45.1082C202.317 45.1082 202.109 45.2857 202.109 45.5133V45.527C202.109 45.832 202.308 45.9321 203.106 46.1369C204.045 46.3827 204.568 46.7241 204.568 47.5343V47.548C204.568 48.472 203.869 48.9909 202.872 48.9909C202.172 48.9909 201.468 48.7451 200.913 48.2444H200.918Z" fill="#878787"/>
</g>
<defs>
<clipPath id="clip0_1_66">
<rect width="227" height="49" fill="white"/>
</clipPath>
</defs>
</svg>
